<?xml version="1.0" encoding="utf-8"?>
<!-- Generator: Adobe Illustrator 24.3.0, SVG Export Plug-In . SVG Version: 6.00 Build 0)  -->
<svg version="1.1" id="Calque_1" xmlns="http://www.w3.org/2000/svg" xmlns:xlink="http://www.w3.org/1999/xlink" x="0px" y="0px"
	 viewBox="0 0 150 841.9" style="enable-background:new 0 0 595.3 841.9;" xml:space="preserve">
<g>
	<path d="M65.5,700c-17.3-0.2-30.6-3.2-42.5-11.3c-8.6-5.8-15.2-13.4-18.1-23.3c-4.4-14.9,0.1-27.7,11.3-38.3
		c8.1-7.8,17.3-13.7,28.4-15.8c7.1-1.3,14.4-3,21.5-2.6c19.5,1.1,37.3,6.7,49.5,23.3c5.9,8,8.6,17.2,7.1,27
		c-1.7,10.9-7.9,19.5-16.5,26.5c-7.5,6-15.9,10.2-25.1,12.5C75,699.4,68.6,699.6,65.5,700z M46,687.5c17.9-0.4,30.4-2.2,42.5-6.4
		c9-3.1,17-7.5,24.2-13.9c11.5-10.3,8.4-26.7-1.3-35.2c-8.7-7.6-19.5-10.1-30.6-10.8c-5.7-0.4-11.5,0.5-17.1,1.2
		c-6.3,0.8-12.5,1.9-18.7,3.1c-10.4,2-19.8,6.5-28.1,13c-6.5,5.1-11.3,11.4-10.7,20.4c0.6,8.9,5,15.6,12.4,20.4
		C28.4,685.8,39.5,687.8,46,687.5z"/>
	<path d="M59.6,762.9c-4.1-7.7-7.7-15.2-14-21c-7.1-6.5-14.8-9.6-24.7-7.8c-6.8,1.3-12.5,3.9-14.4,10.2c-1.7,5.8-1.6,12.5,1.7,18.3
		c5.1,8.9,12.9,14.2,23,16.3c2.1,0.4,4.1,1.3,7.2,2.2c-4.9,2-9.1,4-13.4,5.5c-6.1,2.1-6.4,2.1-9.6-3.7c-3.7-6.6-7.8-13.2-10.2-20.3
		c-3.6-11.1-3.3-27.6,6.9-36.7c6.6-5.8,14.2-6.8,22.6-3.6c9.1,3.6,13.8,10.9,17.2,19.5c0.7,1.8,1.4,3.5,3.2,5.3c0-1.4-0.1-2.8,0-4.2
		c0.8-13.2,6.1-23.7,18.5-29.5c10.4-4.8,20.6-3.2,30,2.6c8.8,5.4,14.6,13.6,17.4,23.3c2.2,7.7,2.7,15.6,0.7,23.9
		c-2.2,9.4-5.5,18-11.4,25.6c-3.9,5.1-4.5,5.1-10.5,2.9c-3.7-1.4-7.6-2.3-11.4-3.5c-1.2-0.4-2.2-1.2-4.3-2.5
		c9-1.4,16.3-3.7,22.7-8.4c7-5.2,12.1-11.4,13.3-20.5c1.7-12.1-1.7-21.8-12.8-27.6c-4.1-2.1-8.9-3.8-13.4-4
		c-6.3-0.3-12.8,0.3-18.9,1.5c-7.6,1.6-17.5,11.7-16.7,21c0.3,3.8,1,7.7,1.4,11.5C59.7,760.5,59.6,761.7,59.6,762.9z"/>
	<path d="M42.3,504.6c0.1,1.3,0.3,2.6,0.3,4c0.1,7.6,0.2,15.3,0.1,22.9c0,3.3,1.1,4.3,4.4,4.3c21.4-0.1,42.9,0,64.3-0.2
		c3.1,0,6.2-1.4,9.6-2.2c0,5.9,0,12.6,0,19.9c-3.7-4.4-8.4-3.6-13-3.6c-17.6,0-35.3-0.1-52.9,0.1c-2.5,0-5.2,0.5-7.4,1.5
		c-1.7,0.8-2.7,2.9-3.9,4.5c-0.6,0.7-1.1,1.4-1.6,2.1c-0.4-0.1-0.9-0.2-1.3-0.3c0-4.8,0-9.6,0-14.1c-3.7,4.4-6.4,9.5-10.7,12.3
		c-8,5.1-20.3,3.4-25.7-8.3c-5.4-11.6-3.9-23.1,1.7-34.3c0.8-1.6,1.7-2.3,4.1-1.7c4.7,1.1,9.7,1.3,14.6,1.9c0.1,0.4,0.2,0.7,0.3,1.1
		c-3,1.8-6,3.7-9.1,5.3c-6.4,3.3-10.5,8.6-13,15.2c-1.6,4.3,3.8,11.3,9.2,11.7c7.8,0.6,15.6,1,22.2-4.5c3.4-2.8,6.1-6,6.2-10.5
		c0.3-7.8,0.2-15.5,0.2-23.3c0-1.2,0.1-2.4,0.2-3.6C41.6,504.6,42,504.6,42.3,504.6z"/>
	<path d="M4.8,318.5c-1-4.5-2.2-9.5-3.5-15.1c2,0,3.6,0,5.3,0c33.3,0,66.6,0,99.8,0c5.1,0,10.2,0.3,14.8-4c0,7.5,0,14,0,21
		c-4.5-3.5-9.3-4.2-14.4-4.2c-29.7,0-59.5-0.1-89.2,0.1C13.4,316.4,9.2,317.7,4.8,318.5z"/>
	<path d="M69.6,346c-2.6,8.4-1.8,17.1-1.8,25.7c-0.1,8.5,0,17.1,0,25.9c6,3.6,12.7,2.8,19,1.8c7.5-1.2,14.6-4.2,20.6-9.1
		c4.4-3.6,8.1-7.9,9.2-13.5c1.2-5.9,1.6-12.1,1.7-18.1c0.1-9.5-9.1-20.8-17.3-23.7c-0.7-0.2-1.1-1-1.7-1.6c8,0.3,13.2,5.4,17.2,11.2
		c6.8,10,7.6,21.1,5.4,33c-1.7,9-4.7,17-10.6,23.8c-8.2,9.4-19.1,11.8-31.2,11.2c-15.8-0.8-26.2-9.1-32.9-22.9
		c-0.8-1.7-1.3-3.5-1.4-5.6c4.8,7.3,11.7,11.1,20,13.8c0-17.2,0-34.3,0-51.9c-6.8,0-11.7,3.9-16.2,8.4c-4.5,4.4-5.4,10.7-7.3,16.5
		c-5.5-15,10.8-38.5,25.5-37.1c0,2.9-0.2,6,0.1,8.9C68,343.8,69,344.9,69.6,346z"/>
	<path d="M69.7,439.2c-2.6,6.3-1.9,12.8-2,19.3c0,10.8,0,21.5,0,32.4c16.9,3.8,31.4,0.4,43.3-12c4.6-4.8,6.8-10.7,7.3-17.4
		c0.6-9.4-0.1-18.5-6.7-25.8c-2.7-3-6.4-5.2-9.6-7.7c-0.5-0.4-0.9-1-1.3-1.5c4.1-1,6.6,2,9.2,4c8.4,6.4,12.1,15.5,12.8,25.8
		c0.8,12.9-2.1,24.9-9.6,35.4c-4.6,6.4-11,10.9-19,12.2c-3.7,0.6-7.4,1.5-11.2,1.5c-16.9,0.1-28.5-8.2-35.7-23
		c-0.8-1.6-1.3-3.3-1.5-5.2c5.7,6,11.4,11.5,20.2,12.9c0-17.4,0-34.4,0-51.7c-14,2.6-21,11.5-23.9,24.7c-1.3-9.4,1.2-17.8,5.9-25.3
		c4.4-6.9,10.7-11.2,19.9-11.5c0,3-0.2,5.8,0.1,8.6C68.1,436.4,69.1,437.8,69.7,439.2z"/>
	<path d="M121.3,235.6c0,6.7,0,13.3,0,20.9c-3.9-4.8-8.8-3.9-13.5-3.9c-18.9,0-37.8,0-56.8,0.1c-1.6,0-3.2,1.2-5.4,2.1
		c-1.8-1.5-3.9-9.7-3.2-16.2c7.9,0,15.9,0.1,23.9-0.1c2.9-0.1,5.8-0.9,8.8-1.3c1.9-0.2,3.9-0.1,5.9-0.1c11.1,0.4,22.2,1,33.3,1.2
		C116.4,238.5,118.6,236.7,121.3,235.6z"/>
	<path d="M121.2,174.4c0,6.3,0,13,0,20.3c-5-4.7-10.3-4-15.7-2.5c-0.6,0.2-1.3,0.3-1.9,0.4c-8.9,0.6-17.8,0.8-26.6,1.9
		c-8.3,1-16.8,1.2-24.5,5.8c-9,5.5-10.2,13.5-5.3,21.8c0.6,1.1,1.2,2.2,1.8,3.4c-0.4,0.2-0.8,0.5-1.2,0.7c-1.6-2.4-3.4-4.7-4.7-7.3
		c-5.1-10.4,1.4-27.6,12-32.4c6.8-3.1,13.8-4.6,21.3-5c11.2-0.6,22.4-1.8,33.5-3.3C113.6,177.8,117.3,175.8,121.2,174.4z"/>
	<path d="M44.9,286.8c-1-4.2-2.2-9.3-3.5-14.9c1.9-0.2,3.4-0.5,5-0.5c20.8,0,41.5,0,62.3-0.1c4.3,0,8.7-0.6,12.4-4.5
		c0,7.1,0,13.8,0,21.1c-6.4-5.3-13.9-3.4-21-3.4c-15.5-0.2-31-0.2-46.5,0C51,284.5,48.5,285.8,44.9,286.8z"/>
	<path d="M36.9,72.9c3.4-0.2,5.7-0.4,8.3-0.5c0.5,7.8,0.9,15.4,1.3,22.9c0.4,0.1,0.9,0.1,1.3,0.2C53,88.2,59.1,81.8,68,79.7
		c8.7-2,17.9-2.2,26.3,1.3c10,4.1,18,11,22.2,21.4c-3.6-2.7-6.8-5.9-10.7-8c-7.3-3.9-15.3-5.4-23.6-3.3c-5.1,1.3-10.3,2.1-15.2,3.8
		c-10.1,3.5-24.5,15.8-23.1,30.4c0.2,2.3,0,4.7,0,7.9c-0.7-1-1.2-1.3-1.2-1.7c-0.5-3.2-1.5-6.4-1.4-9.7c0.1-4.7-0.2-9.9,1.7-13.8
		c3.3-6.7,0.3-12.1-1.2-18C40.4,84.5,38.7,79,36.9,72.9z"/>
	<path d="M46.4,48.8c1.5,0.2,2.2,0.1,2.4,0.4c3.7,4,8.9,4.6,12.9,2.6c3.7-1.8,6.9-5.9,8.8-9.8c3.4-7.1,5.5-14.8,8.3-22.3
		c2.6-7,5.8-13.7,12.9-17.1c5.4-2.6,15.2-2.3,21.7,4.7c1.3,1.4,2.5,3.1,3.7,4.6c-0.3,0.3-0.7,0.6-1,0.8c-0.9-1-1.7-2-2.6-2.9
		c-5.6-5.5-13.6-4.4-17.2,2.6c-2.1,4-3.2,8.5-5,12.7C87.8,33.4,84.5,42,80.3,50c-2.6,4.9-7.7,7.2-13.7,7.2
		C59.1,57.3,52.1,56.2,46.4,48.8z"/>
	<path d="M122,117.3c3.6,11.1-2.4,30.2-12.8,39.6c-10.8,9.8-25.9,10.1-36.8,6.8c-12-3.6-19.9-11.7-25.6-22.2c0.5-0.5,0.9-1,1.4-1.5
		c1.8,2.1,3.4,4.5,5.5,6.2c8.9,7.1,19,8.4,29.9,6.2c7-1.4,13.7-2.9,19.7-6.8c8.1-5.2,15.3-11.2,16.8-21.6
		C120.4,121.8,121.3,119.7,122,117.3z"/>
	<path d="M94.7,61.2c8.2-4.6,14.8-9.8,20.1-16.8c5.7-7.6,5.3-16.3,5.2-25c3.2,5.7,3.2,16.2,2,22.3c-1.4,6.6-3.8,12.7-6.8,18.7
		c-2.1,4.1-4.9,5.3-9.1,4.4c-2.8-0.6-5.6-1-8.3-1.7C96.9,62.8,96.1,62,94.7,61.2z"/>
	<path d="M149.9,86.9c-0.6-0.4-1.4-0.7-1.7-1.3c-4.6-9.2-14.1-12.1-24.2-8.3c-4,1.5-4.6,6.4-1.9,11.5c1,1.8,1.8,3.8,2.3,5.8
		c-6.3-7.4-10-15.4-5.9-23.7c2.1-4.4,8.4-6.9,14-5.7C142.5,67.1,149.9,79.4,149.9,86.9L149.9,86.9z"/>
	<path d="M123.6,134.8c1.4,3.1,2.6,6.3,4.3,9.1c3.2,5.4,13,6.2,16.4,1.1c1.4-2.1,1.7-5.4,1.6-8.1c-0.1-2.6-1.5-5.1-2.2-7.7
		c-0.2-0.9,0-1.8,0-2.8c0.4-0.1,0.9-0.1,1.3-0.2c1.5,5.2,3.5,10.3,4.5,15.6c1.3,6.7-2.5,12.8-8.7,15.3c-3.4,1.4-6.1-0.2-8.4-2.1
		C126,149.9,124.1,142.6,123.6,134.8z"/>
	<path d="M68.5,8.4C53.8,16,40.2,23.2,43.9,42.8c-3.3-6.6-3.3-15.2-0.5-21.1c2.2-4.7,4.5-9.3,6.8-13.9c1.3-2.5,2.7-3.3,5.8-2
		C59.5,7.3,63.6,7.4,68.5,8.4z"/>
	<path d="M20.3,286c-4.5,0-7.8-3.3-7.8-7.7c0-4.3,3.8-8,8-8.1c3.6-0.1,8.2,4,7.8,8.1C27.9,282.8,24.9,286,20.3,286z"/>
	<path d="M100.9,426.6c-6.4,0-12.9,0-19.3,0c1.1-0.5,2.2-1.5,3.4-1.5c4.5-0.2,9.1-0.2,13.6,0C99.4,425.1,100.2,426.1,100.9,426.6z"
		/>
	<path d="M149.8,87c0.4,0.2,1.2,0.4,1.2,0.7c0.1,5,0.1,10,0.1,15c-0.4,0-0.8,0-1.2,0C149.9,97.4,149.9,92.1,149.8,87
		C149.9,86.9,149.8,87,149.8,87z"/>
	<path d="M99.4,333.4c-5.4,0-10.8,0-16.1,0c1.1-0.5,2.2-1.4,3.3-1.5c3.6-0.2,7.2-0.2,10.9,0C98.1,332,98.7,332.9,99.4,333.4z"/>
	<path d="M77.3,429.7c-2.2,2.1-4.3,4.3-6.5,6.4C71.6,432.5,73.5,430.2,77.3,429.7z"/>
</g>
</svg>
